<svg xmlns:dc="http://purl.org/dc/elements/1.1/" xmlns:cc="http://creativecommons.org/ns#" xmlns:rdf="http://www.w3.org/1999/02/22-rdf-syntax-ns#" xmlns:svg="http://www.w3.org/2000/svg" xmlns="http://www.w3.org/2000/svg" xmlns:sodipodi="http://sodipodi.sourceforge.net/DTD/sodipodi-0.dtd" xmlns:inkscape="http://www.inkscape.org/namespaces/inkscape" width="100" height="100" id="svg15466" version="1.1" inkscape:version="0.48.1 r9760" sodipodi:docname="fork.svg">
  <defs id="defs15468"/>
  <sodipodi:namedview id="base" pagecolor="#ffffff" bordercolor="#666666" borderopacity="1.0" inkscape:pageopacity="0.0" inkscape:pageshadow="2" inkscape:zoom="1.979899" inkscape:cx="57.032075" inkscape:cy="58.686018" inkscape:document-units="px" inkscape:current-layer="layer1" showgrid="false" inkscape:window-width="1600" inkscape:window-height="824" inkscape:window-x="0" inkscape:window-y="24" inkscape:window-maximized="1"/>
  <metadata id="metadata15471">
    <rdf:RDF>
      <cc:Work rdf:about="">
        <dc:format>image/svg+xml</dc:format>
        <dc:type rdf:resource="http://purl.org/dc/dcmitype/StillImage"/>
        <dc:title/>
      </cc:Work>
    </rdf:RDF>
  </metadata>
  <g inkscape:label="Layer 1" inkscape:groupmode="layer" id="layer1" transform="translate(0,-952.36218)">
    <path style="fill:#000000;fill-opacity:1;fill-rule:evenodd;stroke:none;display:inline" d="M 49.990087,954.86218 C 23.75704,954.86218 2.5,976.12758 2.5,1002.3622 c 0,26.2347 21.25704,47.5 47.490087,47.5 26.233016,0 47.509913,-21.2653 47.509913,-47.5 0,-26.23462 -21.276897,-47.50002 -47.509913,-47.50002 z m 0.0098,1.5042 c 1.311601,0 2.375,1.0633 2.375,2.375 0,1.3116 -1.063399,2.375 -2.375,2.375 -1.311729,0 -2.375,-1.0634 -2.375,-2.375 0,-1.3117 1.063271,-2.375 2.375,-2.375 z m -11.192204,1.4843 c 1.011687,0.04 1.921027,0.7321 2.196875,1.7615 0.339499,1.267 -0.415308,2.5699 -1.682291,2.9094 -1.266984,0.3395 -2.569877,-0.4153 -2.909375,-1.6823 -0.339499,-1.267 0.415308,-2.56 1.682291,-2.8995 0.237564,-0.064 0.479022,-0.098 0.7125,-0.089 z m 22.384375,0 c 0.233479,-0.01 0.474937,0.025 0.7125,0.089 1.266984,0.3395 2.02179,1.6325 1.682292,2.8995 -0.339498,1.267 -1.642392,2.0218 -2.909375,1.6823 -1.266983,-0.3395 -2.02179,-1.6424 -1.682292,-2.9094 0.275849,-1.0294 1.185189,-1.7212 2.196875,-1.7615 z m -33.061998,4.3641 c 0.8423,-0.022 1.66684,0.4065 2.11774,1.1875 0.655788,1.1359 0.265022,2.59 -0.87083,3.2458 -1.13595,0.6559 -2.59005,0.2651 -3.24584,-0.8708 -0.65591,-1.1359 -0.26511,-2.59 0.87084,-3.2459 0.35492,-0.2049 0.7453,-0.3065 1.12809,-0.3166 z m 43.739587,0 c 0.382818,0.01 0.773205,0.1117 1.128156,0.3166 1.135915,0.6559 1.526619,2.11 0.870834,3.2459 -0.655817,1.1359 -2.109919,1.5267 -3.245834,0.8708 -1.135946,-0.6558 -1.52665,-2.1099 -0.870833,-3.2458 0.45087,-0.781 1.275438,-1.2093 2.117677,-1.1875 z m -21.879672,0.4057 c 7.816188,0 15.109845,2.2574 21.25625,6.1552 l -12.409375,27.1245 -25.729167,-29.5193 c 5.126422,-2.4117 10.841527,-3.7604 16.882292,-3.7604 z m -18.445833,4.5422 17.278125,24.3141 -38.415627,7.5307 c 1.15982,-13.8537 9.42311,-25.6885 21.137502,-31.8448 z m -12.389582,1.9792 c 0.60781,10e-5 1.21853,0.2289 1.68229,0.6927 0.92748,0.9275 0.92748,2.437 0,3.3646 -0.92749,0.9274 -2.42716,0.9274 -3.35471,0 -0.92742,-0.9276 -0.92742,-2.4371 0,-3.3646 0.46383,-0.4638 1.06461,-0.6927 1.67242,-0.6927 z m 61.690625,0 c 0.60781,0 1.208621,0.2289 1.67238,0.6927 0.927548,0.9275 0.927548,2.437 0,3.3646 -0.927517,0.9274 -2.427187,0.9274 -3.354672,0 -0.927485,-0.9276 -0.927485,-2.4371 0,-3.3646 0.463758,-0.4638 1.074482,-0.6927 1.682292,-0.6927 z m -8.134377,0.6135 c 10.291953,7.1825 17.030747,19.1049 17.030747,32.60682 0,0.5389 -0.01837,1.0793 -0.03958,1.613 l -29.687501,2.8104 12.696338,-37.03022 z m -60.423958,8.4214 c 0.38285,0.01 0.77314,0.1117 1.12812,0.3166 1.13595,0.6559 1.52668,2.1099 0.87084,3.2459 -0.65585,1.1359 -2.10989,1.5267 -3.24584,0.8708 -1.13594,-0.6558 -1.52668,-2.1099 -0.87083,-3.2458 0.4509,-0.781 1.27547,-1.2094 2.11771,-1.1875 z m 75.426043,0 c 0.842238,-0.022 1.666807,0.4065 2.117708,1.1875 0.655849,1.1359 0.265114,2.59 -0.870833,3.2458 -1.135947,0.6559 -2.589985,0.2651 -3.245833,-0.8708 -0.655849,-1.136 -0.265114,-2.59 0.870833,-3.2459 0.354983,-0.2049 0.745275,-0.3068 1.128125,-0.3166 z M 7.77435,988.69598 c 0.23348,-0.01 0.47494,0.016 0.7125,0.079 1.26698,0.3396 2.01194,1.6424 1.67238,2.9094 -0.33947,1.267 -1.64246,2.0218 -2.90934,1.6823 -1.26705,-0.3395 -2.01191,-1.6424 -1.67242,-2.9094 0.27585,-1.0295 1.18519,-1.7212 2.19688,-1.7615 z m 84.451043,0 c 1.011687,0.04 1.921027,0.732 2.196875,1.7615 0.339498,1.267 -0.405397,2.57 -1.67238,2.9094 -1.266952,0.3395 -2.569908,-0.4153 -2.909407,-1.6823 -0.339466,-1.267 0.405429,-2.5698 1.672412,-2.9094 0.237563,-0.064 0.479022,-0.088 0.7125,-0.079 z m -45.639585,7.7584 6.828125,0 3.404167,5.90782 -3.404167,5.9078 -6.828125,0 -3.404166,-5.9078 3.404166,-5.90782 z m -6.600505,1.4844 -12.696373,37.04012 c -10.29179,-7.1808 -17.03071,-19.1136 -17.03071,-32.6167 0,-0.5397 0.009,-1.0686 0.0298,-1.6031 l 29.697408,-2.82032 z m -33.606253,2.0484 c 1.3116,0 2.375,1.06332 2.375,2.37502 0,1.3117 -1.0634,2.375 -2.375,2.375 -1.31173,0 -2.375,-1.0633 -2.375,-2.375 0,-1.3117 1.06327,-2.37502 2.375,-2.37502 z m 87.241671,0 c 1.311602,0 2.375,1.06332 2.375,2.37502 0,1.3117 -1.063398,2.375 -2.375,2.375 -0.49191,0 -0.946991,-0.1496 -1.326073,-0.4057 -0.06314,-0.043 -0.129358,-0.09 -0.188005,-0.1386 -0.410527,-0.3388 -0.70072,-0.8146 -0.811458,-1.3557 -0.01583,-0.077 -0.03135,-0.1478 -0.03958,-0.2276 -0.0067,-0.08 -0.0098,-0.1654 -0.0098,-0.2474 0,-0.082 0.0032,-0.1675 0.0098,-0.2474 0.121632,-1.1975 1.135345,-2.12762 2.36512,-2.12762 z m -4.02762,5.73962 c -1.159855,13.8504 -9.425836,25.6789 -21.137501,31.8349 l -17.278125,-24.3042 38.415626,-7.5307 z m -48.430209,3.1073 25.729166,29.5094 c -5.127973,2.4123 -10.85983,3.7604 -16.902083,3.7604 -7.81356,0 -15.092207,-2.2607 -21.236465,-6.1552 l 12.409382,-27.1146 z m -33.200502,2.4443 c 1.01165,0.04 1.92105,0.732 2.19684,1.7614 0.3395,1.267 -0.41534,2.5698 -1.68226,2.9094 -1.26695,0.3394 -2.56991,-0.4153 -2.90941,-1.6823 -0.33946,-1.267 0.41531,-2.57 1.68233,-2.9094 0.23756,-0.064 0.47905,-0.088 0.7125,-0.079 z m 84.074998,0 c 0.233415,-0.01 0.474905,0.016 0.7125,0.079 1.266888,0.3395 2.021822,1.6424 1.68226,2.9094 -0.339467,1.267 -1.642455,2.0218 -2.909343,1.6823 -1.267015,-0.3396 -2.02179,-1.6424 -1.682324,-2.9094 0.27588,-1.0294 1.185157,-1.7213 2.196907,-1.7614 z m -79.997918,10.5192 c 0.11422,-0.01 0.23227,-0.01 0.34634,0 0.7605,0.054 1.48019,0.4776 1.89008,1.1875 0.65582,1.136 0.27503,2.59 -0.86092,3.2459 -1.13594,0.6558 -2.58998,0.2651 -3.24583,-0.8709 -0.65585,-1.1359 -0.26511,-2.59 0.87083,-3.2458 0.31949,-0.1845 0.65661,-0.2898 0.9995,-0.3167 z m 75.574465,0 c 0.456316,-0.032 0.919853,0.071 1.345833,0.3167 1.135947,0.6558 1.526682,2.1099 0.870833,3.2458 -0.655848,1.136 -2.109886,1.5267 -3.245833,0.8709 -1.135947,-0.6559 -1.516738,-2.1099 -0.860953,-3.2459 0.409925,-0.7099 1.129613,-1.1337 1.89012,-1.1875 z m -68.459375,9.0349 c 0.60781,-10e-5 1.21853,0.229 1.68229,0.6927 0.92748,0.9276 0.92748,2.4272 0,3.3547 -0.92749,0.9275 -2.4371,0.9275 -3.36459,0 -0.92748,-0.9275 -0.92748,-2.4271 0,-3.3547 0.46376,-0.4637 1.07449,-0.6927 1.6823,-0.6927 z m 61.690625,0 c 0.60781,0 1.218533,0.229 1.682291,0.6927 0.927485,0.9276 0.927485,2.4272 0,3.3547 -0.927485,0.9275 -2.437098,0.9275 -3.364583,0 -0.927485,-0.9275 -0.927485,-2.4271 0,-3.3547 0.463758,-0.4637 1.074482,-0.6927 1.682292,-0.6927 z m -52.596375,6.9271 c 0.38282,0.01 0.77321,0.1117 1.12816,0.3167 1.135915,0.6558 1.526618,2.1099 0.87083,3.2458 -0.65582,1.1359 -2.10992,1.5266 -3.24583,0.8708 -1.13595,-0.6558 -1.52665,-2.1099 -0.87084,-3.2458 0.45087,-0.781 1.27544,-1.2093 2.11768,-1.1875 z m 43.502087,0 c 0.842301,-0.022 1.666838,0.4065 2.11774,1.1875 0.655785,1.1359 0.265018,2.59 -0.870834,3.2458 -1.135946,0.6558 -2.590048,0.2651 -3.245833,-0.8708 -0.655912,-1.1359 -0.265113,-2.59 0.870833,-3.2458 0.35492,-0.205 0.745307,-0.3069 1.128094,-0.3167 z m -33.111332,4.3641 c 0.06818,0 0.13889,0 0.207797,0 0.157541,0.01 0.316635,0.037 0.475,0.079 1.266983,0.3395 2.02179,1.6424 1.682291,2.9094 -0.339498,1.267 -1.642391,2.0119 -2.909375,1.6724 -1.266983,-0.3395 -2.02179,-1.6424 -1.682291,-2.9094 0.278508,-1.0392 1.203175,-1.724 2.226578,-1.7515 z m 22.513005,0 c 1.102697,-0.066 2.13731,0.643 2.434375,1.7515 0.339498,1.2671 -0.415308,2.5699 -1.682292,2.9094 -1.266983,0.3395 -2.569876,-0.4054 -2.909375,-1.6724 -0.339498,-1.267 0.415309,-2.5699 1.682292,-2.9094 0.158365,-0.042 0.317458,-0.07 0.475,-0.079 z m -11.152588,1.4843 c 1.311601,0 2.375,1.0634 2.375,2.375 0,1.3117 -1.063399,2.375 -2.375,2.375 -1.311729,0 -2.375,-1.0633 -2.375,-2.375 0,-1.3116 1.063271,-2.375 2.375,-2.375 z" id="path12303" inkscape:connector-curvature="0"/>
  </g>
</svg>