<?xml version="1.0" encoding="utf-8"?>
<!-- Generator: Adobe Illustrator 15.0.0, SVG Export Plug-In . SVG Version: 6.00 Build 0)  -->
<!DOCTYPE svg PUBLIC "-//W3C//DTD SVG 1.1//EN" "http://www.w3.org/Graphics/SVG/1.1/DTD/svg11.dtd">
<svg version="1.1" id="Layer_1" xmlns="http://www.w3.org/2000/svg" xmlns:xlink="http://www.w3.org/1999/xlink" x="0px" y="0px"
	 width="100px" height="61.285px" viewBox="0 0 100 61.285" enable-background="new 0 0 100 61.285" xml:space="preserve">
<path fill="#FFFFFF" d="M80.596,22.157c-2.17,0-4.255,0.364-6.205,1.024c-1.512-3.352-3.279-7.274-5.348-11.878l1.32-3.63L74.9,7.59
	V3.795H57.822c-1.494,2.044,0.604,2.035,8.168,3.712l-1.32,3.713H30.927c2.273-7.939,0.989-7.361,11.22-7.343V0
	C28.063,0.137,30.505-1.45,22.963,22.81c-1.154-0.215-2.343-0.333-3.56-0.333C8.704,22.477,0,31.182,0,41.88
	C0,52.58,8.704,61.285,19.403,61.285c10.7,0,19.404-8.705,19.404-19.404c0-8.006-4.875-14.895-11.812-17.854
	c0.422-1.328,0.876-2.746,1.363-4.261C56.744,49.707,46.095,44.852,61.37,45.458c0.073,0,0.144,0,0.216-0.002
	c1.809,8.84,9.646,15.508,19.01,15.508c10.7,0,19.404-8.703,19.404-19.402S91.296,22.157,80.596,22.157z M34.268,41.88
	c0,8.197-6.668,14.865-14.864,14.865c-8.196,0-14.865-6.668-14.865-14.865c0-8.195,6.668-14.863,14.864-14.863
	c0.739,0,1.465,0.056,2.175,0.161c-4.735,14.932-4.167,13.231-4.196,14.491c-0.023,1.062,0.834,1.903,1.912,1.977
	c1.932-0.195,1.497,0.124,6.325-15.261C30.719,30.741,34.268,35.902,34.268,41.88z M53.428,40.957L29.951,15.372l33.02-0.059
	L53.428,40.957z M61.193,41.494l-3.609-0.012l9.367-24.588l3.634,8.052C64.979,28.336,61.219,34.482,61.193,41.494z M72.471,29.124
	l5.604,12.417l-12.343-0.035C65.753,36.33,68.432,31.771,72.471,29.124z M80.596,56.426c-6.854,0-12.638-4.666-14.348-10.988
	c15.471,0.015,16.852,0.808,17.066-1.876c-0.021-0.782-0.312-1.318-7.045-16.22c1.369-0.418,2.821-0.645,4.326-0.645
	c8.195,0,14.863,6.668,14.863,14.865S88.792,56.426,80.596,56.426z"/>
</svg>
