<?xml version="1.0" encoding="utf-8"?>
<!-- Generator: Adobe Illustrator 15.0.0, SVG Export Plug-In . SVG Version: 6.00 Build 0)  -->
<!DOCTYPE svg PUBLIC "-//W3C//DTD SVG 1.1//EN" "http://www.w3.org/Graphics/SVG/1.1/DTD/svg11.dtd">
<svg version="1.1" xmlns="http://www.w3.org/2000/svg" xmlns:xlink="http://www.w3.org/1999/xlink" x="0px" y="0px" width="100px"
	 height="100px" viewBox="0 0 100 100" enable-background="new 0 0 100 100" xml:space="preserve">
<g id="Livello_2" display="none">
	<rect display="inline" stroke="#FFFFFF" stroke-miterlimit="10" width="100" height="100"/>
</g>
<g id="Livello_1" display="none">
	<g id="partly-cloudy-night" display="inline">
		
			<image overflow="visible" opacity="0.45" width="99" height="59" xlink:href="FD95FA96.png"  transform="matrix(1 0 0 1 -4.5 28.5)">
		</image>
		<g>
			<path fill="#FFFFFF" d="M76.256,52.763C73.021,46.56,66.662,42.65,59.544,42.65c-1.644,0-3.266,0.209-4.835,0.625
				c-4.344-5.653-10.99-8.962-18.218-8.962c-10.978,0-20.391,7.884-22.56,18.409C7.209,53.7,2.028,59.503,2.028,66.49
				c0,7.672,6.244,13.916,13.916,13.916h58.103c7.675,0,13.922-6.244,13.922-13.916C87.969,59.609,82.875,53.831,76.256,52.763z
				 M74.047,74.156H15.944c-4.228,0-7.666-3.443-7.666-7.666c0-4.222,3.431-7.656,7.625-7.656h0.012l3.606,0.234l0.241-3.05
				c0.684-8.666,8.031-15.453,16.725-15.453c5.881,0,11.234,3.013,14.322,8.057l1.396,2.284l2.472-1.031
				c1.538-0.647,3.185-0.972,4.866-0.972c5.2,0,9.803,3.125,11.725,7.966l0.775,1.946l2.094,0.025
				c4.181,0.05,7.581,3.481,7.581,7.653C81.719,70.713,78.275,74.156,74.047,74.156z M48.932,44 M87.095,61.66"/>
		</g>
	</g>
	<g display="inline">
		
			<image overflow="visible" opacity="0.45" width="51" height="47" xlink:href="FD95FA9A.png"  transform="matrix(1 0 0 1 41.5 18.5)">
		</image>
		<g>
			<path fill="none" stroke="#FFFFFF" stroke-width="5" stroke-linecap="round" stroke-miterlimit="10" d="M50.534,41.186
				c0.757-9.048,8.704-15.771,17.751-15.014c9.05,0.756,15.771,8.704,15.015,17.751c-0.419,5.004-3.036,9.295-6.822,12.004"/>
		</g>
	</g>
	<g display="inline">
		
			<image overflow="visible" opacity="0.45" width="17" height="25" xlink:href="FD95FA9D.png"  transform="matrix(1 0 0 1 59.5 2.5)">
		</image>
		<g>
			
				<line fill="none" stroke="#FFFFFF" stroke-width="4" stroke-linecap="round" stroke-miterlimit="10" x1="67.787" y1="17.629" x2="67.787" y2="9.5"/>
		</g>
	</g>
	<g display="inline">
		
			<image overflow="visible" opacity="0.45" width="22" height="24" xlink:href="FD95FA9E.png"  transform="matrix(1 0 0 1 40.5 7.5)">
		</image>
		<g>
			
				<line fill="none" stroke="#FFFFFF" stroke-width="4" stroke-linecap="round" stroke-miterlimit="10" x1="54.177" y1="21.714" x2="49.399" y2="15.137"/>
		</g>
	</g>
	<g display="inline">
		
			<image overflow="visible" opacity="0.45" width="25" height="19" xlink:href="FD95FA9C.png"  transform="matrix(1 0 0 1 29.5 23.5)">
		</image>
		<g>
			
				<line fill="none" stroke="#FFFFFF" stroke-width="4" stroke-linecap="round" stroke-miterlimit="10" x1="45.566" y1="33.018" x2="37.836" y2="30.505"/>
		</g>
	</g>
	<g display="inline">
		
			<image overflow="visible" opacity="0.45" width="25" height="20" xlink:href="FD95FA9B.png"  transform="matrix(1 0 0 1 80.5 40.5)">
		</image>
		<g>
			
				<line fill="none" stroke="#FFFFFF" stroke-width="4" stroke-linecap="round" stroke-miterlimit="10" x1="88.967" y1="48.213" x2="96.697" y2="50.725"/>
		</g>
	</g>
	<g display="inline">
		
			<image overflow="visible" opacity="0.45" width="25" height="20" xlink:href="FD95FA95.png"  transform="matrix(1 0 0 1 80.5 23.5)">
		</image>
		<g>
			
				<line fill="none" stroke="#FFFFFF" stroke-width="4" stroke-linecap="round" stroke-miterlimit="10" x1="89.288" y1="34.006" x2="97.019" y2="31.495"/>
		</g>
	</g>
	<g display="inline">
		
			<image overflow="visible" opacity="0.45" width="22" height="23" xlink:href="FD95FA97.png"  transform="matrix(1 0 0 1 72.5 8.5)">
		</image>
		<g>
			
				<line fill="none" stroke="#FFFFFF" stroke-width="4" stroke-linecap="round" stroke-miterlimit="10" x1="81.198" y1="22.325" x2="85.976" y2="15.749"/>
		</g>
	</g>
</g>
<g id="Livello_4" display="none">
	<g id="partly-cloudy-night_1_" display="inline">
		
			<image overflow="visible" opacity="0.45" width="99" height="59" xlink:href="FD95FA94.png"  transform="matrix(1 0 0 1 0.5 21.5)">
		</image>
		<g>
			<path fill="#FFFFFF" d="M81.258,45.403C78.023,39.2,71.664,35.29,64.545,35.29c-1.643,0-3.266,0.21-4.834,0.625
				c-4.344-5.652-10.991-8.962-18.219-8.962c-10.978,0-20.391,7.884-22.56,18.409C12.211,46.341,7.03,52.144,7.03,59.131
				c0,7.672,6.244,13.916,13.916,13.916h58.104c7.674,0,13.922-6.244,13.922-13.916C92.971,52.25,87.877,46.472,81.258,45.403z
				 M79.049,66.797H20.945c-4.228,0-7.666-3.443-7.666-7.666s3.431-7.656,7.625-7.656h0.012l3.606,0.234l0.241-3.05
				c0.684-8.666,8.031-15.453,16.725-15.453c5.881,0,11.234,3.013,14.322,8.057l1.396,2.284l2.473-1.031
				c1.537-0.647,3.184-0.972,4.865-0.972c5.201,0,9.803,3.125,11.725,7.966l0.775,1.946l2.094,0.025
				c4.182,0.05,7.582,3.481,7.582,7.653C86.721,63.354,83.277,66.797,79.049,66.797z M53.934,36.641 M92.096,54.301"/>
		</g>
	</g>
</g>
<g id="Livello_5" display="none">
	<g id="partly-cloudy-night_2_" display="inline">
		
			<image overflow="visible" opacity="0.45" width="99" height="59" xlink:href="A6AD3809.png"  transform="matrix(1 0 0 1 3.5 11.5)">
		</image>
		<g>
			<path fill="#FFFFFF" d="M84.258,35.403C81.023,29.2,74.664,25.29,67.545,25.29c-1.643,0-3.266,0.21-4.834,0.625
				c-4.344-5.652-10.99-8.962-18.219-8.962c-10.978,0-20.391,7.884-22.56,18.409c-6.722,0.979-11.903,6.781-11.903,13.769
				c0,7.672,6.244,13.916,13.916,13.916h58.104c7.674,0,13.922-6.244,13.922-13.916C95.971,42.25,90.877,36.472,84.258,35.403z
				 M82.049,56.797H23.945c-4.228,0-7.666-3.443-7.666-7.666s3.431-7.656,7.625-7.656h0.012l3.606,0.234l0.241-3.05
				c0.684-8.666,8.031-15.453,16.725-15.453c5.881,0,11.234,3.013,14.322,8.057l1.396,2.284l2.473-1.031
				c1.537-0.647,3.184-0.972,4.865-0.972c5.201,0,9.803,3.125,11.725,7.966l0.775,1.946l2.094,0.025
				c4.182,0.05,7.582,3.481,7.582,7.653C89.721,53.354,86.277,56.797,82.049,56.797z M56.934,26.641 M95.096,44.301"/>
		</g>
	</g>
	<g display="inline">
		
			<image overflow="visible" opacity="0.45" width="66" height="24" xlink:href="A6AD380F.png"  transform="matrix(1 0 0 1 17.5 63.5)">
		</image>
		<g>
			<g>
				
					<line fill="none" stroke="#FFFFFF" stroke-width="4" stroke-linecap="round" stroke-miterlimit="10" x1="30" y1="70.5" x2="26.25" y2="77.75"/>
				
					<line fill="none" stroke="#FFFFFF" stroke-width="4" stroke-linecap="round" stroke-miterlimit="10" x1="44.905" y1="70.5" x2="41.155" y2="77.75"/>
				
					<line fill="none" stroke="#FFFFFF" stroke-width="4" stroke-linecap="round" stroke-miterlimit="10" x1="59.81" y1="70.5" x2="56.06" y2="77.75"/>
				
					<line fill="none" stroke="#FFFFFF" stroke-width="4" stroke-linecap="round" stroke-miterlimit="10" x1="74.714" y1="70.5" x2="70.964" y2="77.75"/>
			</g>
		</g>
	</g>
	<g display="inline">
		
			<image overflow="visible" opacity="0.45" width="65" height="24" xlink:href="A6AD3808.png"  transform="matrix(1 0 0 1 12.5 77.5)">
		</image>
		<g>
			<g>
				
					<line fill="none" stroke="#FFFFFF" stroke-width="4" stroke-linecap="round" stroke-miterlimit="10" x1="24.423" y1="85.155" x2="20.673" y2="92.405"/>
				
					<line fill="none" stroke="#FFFFFF" stroke-width="4" stroke-linecap="round" stroke-miterlimit="10" x1="39.328" y1="85.155" x2="35.578" y2="92.405"/>
				
					<line fill="none" stroke="#FFFFFF" stroke-width="4" stroke-linecap="round" stroke-miterlimit="10" x1="54.232" y1="85.155" x2="50.482" y2="92.405"/>
				
					<line fill="none" stroke="#FFFFFF" stroke-width="4" stroke-linecap="round" stroke-miterlimit="10" x1="69.137" y1="85.155" x2="65.387" y2="92.405"/>
			</g>
		</g>
	</g>
</g>
<g id="Livello_6" display="none">
	<g display="inline">
		
			<image overflow="visible" opacity="0.45" width="86" height="59" xlink:href="A6AD380B.png"  transform="matrix(1 0 0 1 20.5 21.5)">
		</image>
		<g>
			<path fill="#FFFFFF" d="M89.99,53.336L89.99,53.336h-5.004c-1.844,0-3.338-1.493-3.338-3.336c0-1.842,1.494-3.338,3.338-3.338
				h5.004c1.844,0,3.338-1.495,3.338-3.335c0-1.844-1.494-3.338-3.338-3.338c-1.842,0-3.336-1.495-3.336-3.338
				c0-1.842,1.494-3.337,3.336-3.337c0.23,0,0.453,0.024,0.672,0.069c5.209,0.352,9.338,4.645,9.338,9.944
				C100,48.853,95.52,53.336,89.99,53.336z M73.303,46.662h-3.338H58.288H36.596c-1.841,0-3.336,1.496-3.336,3.338
				c0,1.843,1.495,3.336,3.336,3.336h3.338h6.673h5.007h6.675h5.006h6.671h3.338c5.531,0,10.014,4.484,10.014,10.012
				c0,5.301-4.131,9.594-9.34,9.945c-0.219,0.047-0.439,0.068-0.674,0.068c-1.844,0-3.338-1.496-3.338-3.338
				c0-1.844,1.494-3.338,3.338-3.338c1.846,0,3.338-1.494,3.338-3.338c0-1.84-1.492-3.336-3.338-3.336h-3.338h-6.671h-5.006h-6.675
				h-5.007h-6.673h-3.338c-5.528,0-10.011-4.482-10.011-10.012c0-5.298,4.131-9.59,9.34-9.944c0.218-0.043,0.442-0.067,0.671-0.067
				l0,0h21.692h11.677h3.338c1.846,0,3.338-1.495,3.338-3.338c0-1.842-1.492-3.337-3.338-3.337c-1.844,0-3.338-1.493-3.338-3.336
				c0-1.843,1.494-3.338,3.338-3.338c0.234,0,0.455,0.025,0.674,0.068c5.209,0.353,9.34,4.645,9.34,9.944
				C83.316,42.178,78.834,46.662,73.303,46.662z"/>
		</g>
	</g>
</g>
<g id="Livello_3">
	<g>
		
			<image overflow="visible" opacity="0.45" width="17" height="27" xlink:href="A6AD3817.png"  transform="matrix(1 0 0 1 42.5 5.5)">
		</image>
		<g>
			
				<line fill="none" stroke="#FFFFFF" stroke-width="4" stroke-linecap="round" stroke-miterlimit="10" x1="50.619" y1="22.667" x2="50.619" y2="13"/>
		</g>
	</g>
	<g>
		
			<image overflow="visible" opacity="0.45" width="22" height="25" xlink:href="A6AD3807.png"  transform="matrix(1 0 0 1 20.5 12.5)">
		</image>
		<g>
			
				<line fill="none" stroke="#FFFFFF" stroke-width="4" stroke-linecap="round" stroke-miterlimit="10" x1="34.435" y1="27.524" x2="28.753" y2="19.703"/>
		</g>
	</g>
	<g>
		
			<image overflow="visible" opacity="0.45" width="26" height="20" xlink:href="A6AD3819.png"  transform="matrix(1 0 0 1 6.5 30.5)">
		</image>
		<g>
			
				<line fill="none" stroke="#FFFFFF" stroke-width="4" stroke-linecap="round" stroke-miterlimit="10" x1="24.196" y1="40.966" x2="15.003" y2="37.979"/>
		</g>
	</g>
	<g>
		
			<image overflow="visible" opacity="0.45" width="26" height="20" xlink:href="A6AD381B.png"  transform="matrix(1 0 0 1 6.5 50.5)">
		</image>
		<g>
			
				<line fill="none" stroke="#FFFFFF" stroke-width="4" stroke-linecap="round" stroke-miterlimit="10" x1="23.814" y1="57.859" x2="14.62" y2="60.846"/>
		</g>
	</g>
	<g>
		
			<image overflow="visible" opacity="0.45" width="22" height="25" xlink:href="A6AD3818.png"  transform="matrix(1 0 0 1 19.5 64.5)">
		</image>
		<g>
			
				<line fill="none" stroke="#FFFFFF" stroke-width="4" stroke-linecap="round" stroke-miterlimit="10" x1="33.435" y1="71.75" x2="27.752" y2="79.57"/>
		</g>
	</g>
	<g>
		
			<image overflow="visible" opacity="0.45" width="17" height="27" xlink:href="A6AD381F.png"  transform="matrix(1 0 0 1 40.5 69.5)">
		</image>
		<g>
			
				<line fill="none" stroke="#FFFFFF" stroke-width="4" stroke-linecap="round" stroke-miterlimit="10" x1="49.382" y1="77.334" x2="49.382" y2="87"/>
		</g>
	</g>
	<g>
		
			<image overflow="visible" opacity="0.45" width="22" height="25" xlink:href="A6AD383C.png"  transform="matrix(1 0 0 1 57.5 64.5)">
		</image>
		<g>
			
				<line fill="none" stroke="#FFFFFF" stroke-width="4" stroke-linecap="round" stroke-miterlimit="10" x1="65.566" y1="72.478" x2="71.248" y2="80.297"/>
		</g>
	</g>
	<g>
		
			<image overflow="visible" opacity="0.45" width="26" height="20" xlink:href="A6AD383F.png"  transform="matrix(1 0 0 1 67.5 51.5)">
		</image>
		<g>
			
				<line fill="none" stroke="#FFFFFF" stroke-width="4" stroke-linecap="round" stroke-miterlimit="10" x1="75.806" y1="59.035" x2="84.998" y2="62.021"/>
		</g>
	</g>
	<g>
		
			<image overflow="visible" opacity="0.45" width="26" height="20" xlink:href="A6AD383D.png"  transform="matrix(1 0 0 1 67.5 31.5)">
		</image>
		<g>
			
				<line fill="none" stroke="#FFFFFF" stroke-width="4" stroke-linecap="round" stroke-miterlimit="10" x1="76.188" y1="42.142" x2="85.38" y2="39.155"/>
		</g>
	</g>
	<g>
		
			<image overflow="visible" opacity="0.45" width="22" height="25" xlink:href="A6AD3833.png"  transform="matrix(1 0 0 1 58.5 12.5)">
		</image>
		<g>
			
				<line fill="none" stroke="#FFFFFF" stroke-width="4" stroke-linecap="round" stroke-miterlimit="10" x1="66.567" y1="28.25" x2="72.248" y2="20.431"/>
		</g>
	</g>
	<g>
		
			<image overflow="visible" opacity="0.45" width="47" height="47" xlink:href="A6AD3834.png"  transform="matrix(1 0 0 1 26.5 27.5)">
		</image>
		<g>
			<circle fill="#FFFFFF" cx="50" cy="50" r="16.667"/>
		</g>
	</g>
</g>
</svg>
