<svg xmlns="http://www.w3.org/2000/svg" version="1.1" width="100" height="100" viewBox="0 0 32 32">
<path id="partly-cloudy-night" d="M26.002,12.404c-1.035-1.985-3.07-3.236-5.348-3.236  c-0.526,0-1.045,0.067-1.547,0.2C17.717,7.559,15.59,6.5,13.277,6.5c-3.513,0-6.525,2.523-7.219,5.891  c-2.151,0.313-3.809,2.17-3.809,4.406c0,2.455,1.998,4.453,4.453,4.453h18.593c2.456,0,4.455-1.998,4.455-4.453  C29.75,14.595,28.12,12.746,26.002,12.404z M25.295,19.25H6.702c-1.353,0-2.453-1.102-2.453-2.453c0-1.351,1.098-2.45,2.44-2.45  h0.004l1.154,0.075l0.077-0.976c0.219-2.773,2.57-4.945,5.352-4.945c1.882,0,3.595,0.964,4.583,2.578l0.447,0.731l0.791-0.33  c0.492-0.207,1.019-0.311,1.557-0.311c1.664,0,3.137,1,3.752,2.549l0.248,0.623l0.67,0.008c1.338,0.016,2.426,1.114,2.426,2.449  C27.75,18.148,26.648,19.25,25.295,19.25z M19.49,8.265c0.383-0.064,0.771-0.096,1.164-0.096c2.427,0,4.642,1.234,5.924,3.25  c0.441-0.26,0.863-0.562,1.23-0.956c0.572-0.616,0.974-1.332,1.207-2.086c-1.72,0.642-3.724,0.329-5.154-1.007  c-1.678-1.564-2.016-4.005-1.008-5.946c-1.106,0.203-2.16,0.744-2.986,1.63c-1.112,1.192-1.562,2.749-1.409,4.252  C18.823,7.597,19.173,7.911,19.49,8.265z"/>
</svg>