<svg xmlns="http://www.w3.org/2000/svg" xmlns:xlink="http://www.w3.org/1999/xlink" version="1.1" id="Layer_1" x="0px" y="0px" width="100px" height="100px" viewBox="0 0 100 100" enable-background="new 0 0 100 100" xml:space="preserve">
<g>
	<path fill="#000000" d="M86.619,53.052c-1.723-5.25-5.799-9.295-10.916-11.035C71.417,32.111,61.562,25.153,50.1,25.153   c-15.382,0-27.896,12.515-27.896,27.897c0,9.099,4.388,17.184,11.148,22.279c1.44,6.713,7.415,11.763,14.551,11.763h33.218   c9.632,0,17.469-7.837,17.469-17.47C98.59,61.964,93.693,55.372,86.619,53.052z M34.981,64.88   c-2.562-3.268-4.108-7.365-4.109-11.829c0-10.602,8.626-19.227,19.228-19.227c6.342,0,11.974,3.087,15.478,7.835   c-4.672,1.222-8.635,4.322-10.928,8.614c-5.051,0.168-9.477,3.286-11.41,7.812C39.705,59.257,36.785,61.725,34.981,64.88z    M81.121,79.093H47.903c-3.797,0-6.887-3.089-6.887-6.885c0-3.402,2.542-6.327,5.915-6.804l1.425-0.201   c0.227-3.938,3.483-7.064,7.478-7.064c1.451,0,2.8,0.423,3.947,1.136c0.036,0.009,0.062,0.015,0.077,0.018   c-0.009-0.162-0.024-0.323-0.024-0.487c0-5.615,4.552-10.167,10.167-10.167s10.167,4.552,10.167,10.167   c0,0.362-0.021,0.719-0.058,1.071l2.561,0.422c4.589,0.755,7.919,4.677,7.919,9.325C90.59,74.845,86.342,79.093,81.121,79.093z"/>
	<path fill="#000000" d="M50.1,24.042c2.396,0,4.337-1.94,4.337-4.334V7.481c0-2.394-1.941-4.334-4.337-4.334   c-2.393,0-4.333,1.94-4.333,4.334v12.226C45.767,22.102,47.707,24.042,50.1,24.042z"/>
	<path fill="#000000" d="M21.333,53.051c0-2.393-1.941-4.334-4.335-4.334H4.772c-2.394,0-4.334,1.941-4.334,4.334   c0,2.395,1.94,4.336,4.334,4.336h12.226C19.393,57.387,21.333,55.445,21.333,53.051z"/>
	<path fill="#000000" d="M23.429,32.467c0.846,0.846,1.955,1.27,3.065,1.27c1.109,0,2.219-0.424,3.066-1.27   c1.692-1.692,1.692-4.437,0-6.129l-8.646-8.646c-1.692-1.692-4.438-1.692-6.13,0c-1.693,1.693-1.693,4.437,0,6.13L23.429,32.467z"/>
	<path fill="#000000" d="M73.335,34.051c1.107,0,2.219-0.423,3.064-1.27l8.645-8.646c1.691-1.693,1.691-4.438-0.002-6.13   c-1.689-1.692-4.436-1.692-6.131,0l-8.641,8.646c-1.693,1.693-1.693,4.438,0,6.13C71.114,33.628,72.224,34.051,73.335,34.051z"/>
	<path fill="#000000" d="M23.599,73.322l-8.645,8.645c-1.693,1.693-1.692,4.438,0,6.131c0.847,0.844,1.955,1.27,3.065,1.27   c1.109,0,2.219-0.426,3.065-1.27l8.646-8.646c1.692-1.693,1.692-4.438,0-6.129C28.036,71.629,25.292,71.629,23.599,73.322z"/>
</g>
</svg>