<?xml version="1.0" encoding="utf-8"?>
<!-- Generator: Adobe Illustrator 15.0.0, SVG Export Plug-In . SVG Version: 6.00 Build 0)  -->
<!DOCTYPE svg PUBLIC "-//W3C//DTD SVG 1.1//EN" "http://www.w3.org/Graphics/SVG/1.1/DTD/svg11.dtd">
<svg version="1.1" xmlns="http://www.w3.org/2000/svg" xmlns:xlink="http://www.w3.org/1999/xlink" x="0px" y="0px" width="100px"
	 height="100px" viewBox="0 0 100 100" enable-background="new 0 0 100 100" xml:space="preserve">
<g id="Livello_2">
	<rect stroke="#FFFFFF" stroke-miterlimit="10" width="100" height="100"/>
</g>
<g id="Livello_1">
	<path id="partly-cloudy-night" fill="#FFFFFF" d="M76.256,52.763C73.021,46.56,66.662,42.65,59.544,42.65
		c-1.644,0-3.266,0.209-4.835,0.625c-4.344-5.653-10.99-8.962-18.218-8.962c-10.978,0-20.391,7.884-22.56,18.409
		C7.209,53.7,2.028,59.503,2.028,66.49c0,7.672,6.244,13.916,13.916,13.916h58.103c7.675,0,13.922-6.244,13.922-13.916
		C87.969,59.609,82.875,53.831,76.256,52.763z M74.047,74.156H15.944c-4.228,0-7.666-3.443-7.666-7.666
		c0-4.222,3.431-7.656,7.625-7.656h0.012l3.606,0.234l0.241-3.05c0.684-8.666,8.031-15.453,16.725-15.453
		c5.881,0,11.234,3.013,14.322,8.057l1.396,2.284l2.472-1.031c1.538-0.647,3.185-0.972,4.866-0.972c5.2,0,9.803,3.125,11.725,7.966
		l0.775,1.946l2.094,0.025c4.181,0.05,7.581,3.481,7.581,7.653C81.719,70.713,78.275,74.156,74.047,74.156z M48.932,44
		 M87.095,61.66"/>
	<path fill="none" stroke="#FFFFFF" stroke-width="5" stroke-linecap="round" stroke-miterlimit="10" d="M50.534,41.186
		c0.757-9.048,8.704-15.771,17.751-15.014c9.05,0.756,15.771,8.704,15.015,17.751c-0.419,5.004-3.036,9.295-6.822,12.004"/>
	
		<line fill="none" stroke="#FFFFFF" stroke-width="4" stroke-linecap="round" stroke-miterlimit="10" x1="67.787" y1="17.629" x2="67.787" y2="9.5"/>
	
		<line fill="none" stroke="#FFFFFF" stroke-width="4" stroke-linecap="round" stroke-miterlimit="10" x1="54.177" y1="21.714" x2="49.399" y2="15.137"/>
	
		<line fill="none" stroke="#FFFFFF" stroke-width="4" stroke-linecap="round" stroke-miterlimit="10" x1="45.566" y1="33.018" x2="37.836" y2="30.505"/>
	
		<line fill="none" stroke="#FFFFFF" stroke-width="4" stroke-linecap="round" stroke-miterlimit="10" x1="88.967" y1="48.213" x2="96.697" y2="50.725"/>
	
		<line fill="none" stroke="#FFFFFF" stroke-width="4" stroke-linecap="round" stroke-miterlimit="10" x1="89.288" y1="34.006" x2="97.019" y2="31.495"/>
	
		<line fill="none" stroke="#FFFFFF" stroke-width="4" stroke-linecap="round" stroke-miterlimit="10" x1="81.198" y1="22.325" x2="85.976" y2="15.749"/>
</g>
<g id="Livello_3" display="none">
	<g display="inline">
		
			<line fill="none" stroke="#FFFFFF" stroke-width="4" stroke-linecap="round" stroke-miterlimit="10" x1="50.619" y1="22.667" x2="50.619" y2="13"/>
		
			<line fill="none" stroke="#FFFFFF" stroke-width="4" stroke-linecap="round" stroke-miterlimit="10" x1="34.435" y1="27.524" x2="28.753" y2="19.703"/>
		
			<line fill="none" stroke="#FFFFFF" stroke-width="4" stroke-linecap="round" stroke-miterlimit="10" x1="24.196" y1="40.966" x2="15.003" y2="37.979"/>
		
			<line fill="none" stroke="#FFFFFF" stroke-width="4" stroke-linecap="round" stroke-miterlimit="10" x1="23.814" y1="57.859" x2="14.62" y2="60.846"/>
		
			<line fill="none" stroke="#FFFFFF" stroke-width="4" stroke-linecap="round" stroke-miterlimit="10" x1="33.435" y1="71.75" x2="27.752" y2="79.57"/>
		
			<line fill="none" stroke="#FFFFFF" stroke-width="4" stroke-linecap="round" stroke-miterlimit="10" x1="49.382" y1="77.334" x2="49.382" y2="87"/>
		
			<line fill="none" stroke="#FFFFFF" stroke-width="4" stroke-linecap="round" stroke-miterlimit="10" x1="65.566" y1="72.478" x2="71.248" y2="80.297"/>
		
			<line fill="none" stroke="#FFFFFF" stroke-width="4" stroke-linecap="round" stroke-miterlimit="10" x1="75.806" y1="59.035" x2="84.998" y2="62.021"/>
		
			<line fill="none" stroke="#FFFFFF" stroke-width="4" stroke-linecap="round" stroke-miterlimit="10" x1="76.188" y1="42.142" x2="85.38" y2="39.155"/>
		
			<line fill="none" stroke="#FFFFFF" stroke-width="4" stroke-linecap="round" stroke-miterlimit="10" x1="66.567" y1="28.25" x2="72.248" y2="20.431"/>
		
			<circle fill="none" stroke="#FFFFFF" stroke-width="4" stroke-linecap="round" stroke-miterlimit="10" cx="51.102" cy="50" r="16.667"/>
	</g>
</g>
</svg>
